<?xml version="1.0" encoding="UTF-8"?>
<svg width="113px" height="113px" viewBox="0 0 113 113" version="1.1" xmlns="http://www.w3.org/2000/svg" xmlns:xlink="http://www.w3.org/1999/xlink">
    <!-- Generator: Sketch 54.1 (76490) - https://sketchapp.com -->
    <title>编组 2</title>
    <desc>Created with Sketch.</desc>
    <g id="页面1" stroke="none" stroke-width="1" fill="none" fill-rule="evenodd">
        <g id="编组-2" transform="translate(0.000000, -3.000000)">
            <rect id="矩形" fill="#1C3ED3" x="0" y="3" width="113" height="113" rx="8"></rect>
            <path d="M33.7,77 C33.7,74.133319 33.7166665,71.9500075 33.75,70.45 C33.7833335,68.9499925 33.8,67.633339 33.8,66.5 C32.399993,67.300004 30.9166745,67.9499975 29.35,68.45 C27.7833255,68.9500025 26.3500065,69.5833295 25.05,70.35 C23.7499935,71.1166705 22.6833375,72.16666 21.85,73.5 C21.0166625,74.83334 20.6,76.766654 20.6,79.3 C20.6,81.766679 21.1166615,83.6499935 22.15,84.95 C23.1833385,86.2500065 24.566658,86.9 26.3,86.9 C28.500011,86.9 30.2833265,86.066675 31.65,84.4 C33.0166735,82.733325 33.7,80.266683 33.7,77 Z M10,49.8 C12.800014,47.533322 15.8166505,45.800006 19.05,44.6 C22.2833495,43.399994 25.499984,42.8 28.7,42.8 C31.36668,42.8 33.8166555,43.099997 36.05,43.7 C38.2833445,44.300003 40.2166585,45.2499935 41.85,46.55 C43.4833415,47.8500065 44.7499955,49.533323 45.65,51.6 C46.5500045,53.666677 47,56.166652 47,59.1 C47,63.366688 46.9500005,67.3166485 46.85,70.95 C46.7499995,74.5833515 46.7,78.199982 46.7,81.8 C46.7,83.400008 46.8166655,84.6499955 47.05,85.55 C47.2833345,86.4500045 47.633331,87.133331 48.1,87.6 C48.566669,88.066669 49.1833295,88.366666 49.95,88.5 C50.7166705,88.633334 51.599995,88.7 52.6,88.7 L52.6,91.1 C50.666657,91.900004 49.03334,92.499998 47.7,92.9 C46.36666,93.300002 44.933341,93.5 43.4,93.5 C40.933321,93.5 38.933341,92.900006 37.4,91.7 C35.866659,90.499994 34.700004,88.766678 33.9,86.5 C32.366659,88.633344 30.5833435,90.333327 28.55,91.6 C26.5166565,92.866673 23.966682,93.5 20.9,93.5 C18.366654,93.5 16.200009,93.16667 14.4,92.5 C12.599991,91.83333 11.1166725,90.8833395 9.95,89.65 C8.7833275,88.4166605 7.933336,87.0166745 7.4,85.45 C6.866664,83.8833255 6.6,82.3 6.6,80.7 C6.6,78.499989 6.9499965,76.600008 7.65,75 C8.3500035,73.399992 9.3499935,72.033339 10.65,70.9 C11.9500065,69.766661 13.499991,68.8166705 15.3,68.05 C17.100009,67.2833295 19.133322,66.633336 21.4,66.1 C24.200014,65.43333 26.4166585,64.8500025 28.05,64.35 C29.6833415,63.8499975 30.899996,63.3500025 31.7,62.85 C32.500004,62.3499975 33.0166655,61.800003 33.25,61.2 C33.4833345,60.599997 33.6,59.866671 33.6,59 C33.6,56.599988 32.7500085,54.5500085 31.05,52.85 C29.3499915,51.1499915 27.000015,50.3 24,50.3 C22.866661,50.3 21.700006,50.4499985 20.5,50.75 C19.299994,51.0500015 18.1500055,51.466664 17.05,52 C15.9499945,52.533336 14.9500045,53.1166635 14.05,53.75 C13.1499955,54.3833365 12.466669,55.066663 12,55.8 L11.3,55.8 L10,49.8 Z M73.7,68.6 C73.7,71.533348 73.8166655,74.266654 74.05,76.8 C74.2833345,79.333346 74.7166635,81.5166575 75.35,83.35 C75.9833365,85.1833425 76.8499945,86.633328 77.95,87.7 C79.0500055,88.766672 80.499991,89.3 82.3,89.3 C85.166681,89.3 87.4499915,87.5166845 89.15,83.95 C90.8500085,80.3833155 91.7,74.533374 91.7,66.4 C91.7,54.799942 88.833362,49 83.1,49 C81.7,49 80.4166725,49.33333 79.25,50 C78.0833275,50.66667 77.0833375,51.7833255 76.25,53.35 C75.4166625,54.9166745 74.7833355,56.9499875 74.35,59.45 C73.9166645,61.9500125 73.7,64.999982 73.7,68.6 Z M60.3,51.4 C60.3,44.866634 60.233334,38.866694 60.1,33.4 C59.966666,27.933306 59.766668,22.400028 59.5,16.8 C60.366671,16.933334 61.46666,17.0499995 62.8,17.15 C64.13334,17.2500005 65.533326,17.3 67,17.3 C68.466674,17.3 69.86666,17.2500005 71.2,17.15 C72.53334,17.0499995 73.633329,16.933334 74.5,16.8 C74.233332,22.400028 74.033334,27.933306 73.9,33.4 C73.766666,38.866694 73.7,44.866634 73.7,51.4 L73.9,51.4 C75.033339,48.599986 76.7833215,46.466674 79.15,45 C81.5166785,43.533326 84.199985,42.8 87.2,42.8 C90.066681,42.8 92.6833215,43.433327 95.05,44.7 C97.4166785,45.966673 99.4499915,47.666656 101.15,49.8 C102.850008,51.933344 104.166662,54.4499855 105.1,57.35 C106.033338,60.2500145 106.5,63.36665 106.5,66.7 C106.5,71.700025 105.816673,75.9166495 104.45,79.35 C103.083326,82.7833505 101.316678,85.566656 99.15,87.7 C96.9833225,89.833344 94.56668,91.333329 91.9,92.2 C89.23332,93.066671 86.600013,93.5 84,93.5 C80.799984,93.5 78.100011,92.8833395 75.9,91.65 C73.699989,90.4166605 71.900007,88.80001 70.5,86.8 C69.099993,87.600004 67.6833405,88.533328 66.25,89.6 C64.8166595,90.666672 63.366674,91.666662 61.9,92.6 L59.5,92.6 C59.766668,86.999972 59.966666,81.4500275 60.1,75.95 C60.233334,70.4499725 60.3,64.433366 60.3,57.9 L60.3,51.4 Z" id="ab" fill="#FFFFFF" fill-rule="nonzero"></path>
        </g>
    </g>
</svg>