<?xml version="1.0" encoding="UTF-8"?>
<svg width="456px" height="103px" viewBox="0 0 456 103" version="1.1" xmlns="http://www.w3.org/2000/svg" xmlns:xlink="http://www.w3.org/1999/xlink">
    <!-- Generator: Sketch 54.1 (76490) - https://sketchapp.com -->
    <title>编组</title>
    <desc>Created with Sketch.</desc>
    <g id="页面1" stroke="none" stroke-width="1" fill="none" fill-rule="evenodd">
        <g id="编组" transform="translate(-1.000000, -16.000000)" fill-rule="nonzero">
            <path d="M30.05,42.3 C28.316658,46.30002 26.683341,50.2499805 25.15,54.15 C23.616659,58.0500195 22.116674,62.033313 20.65,66.1 L38.95,66.1 C37.483326,62.033313 36.0333405,58.0500195 34.6,54.15 C33.1666595,50.2499805 31.650008,46.30002 30.05,42.3 Z M65.45,92.2 C63.849992,92.066666 62.3333405,92 60.9,92 L52.4,92 C50.9666595,92 49.550007,92.066666 48.15,92.2 C47.083328,88.933317 45.983339,85.600017 44.85,82.2 C43.716661,78.799983 42.516673,75.400017 41.25,72 C39.116656,71.933333 36.983344,71.8833335 34.85,71.85 C32.716656,71.8166665 30.583344,71.8 28.45,71.8 C26.716658,71.8 24.983342,71.8166665 23.25,71.85 C21.516658,71.8833335 19.783342,71.933333 18.05,72 C16.71666,75.400017 15.483339,78.799983 14.35,82.2 C13.216661,85.600017 12.183338,88.933317 11.25,92.2 C10.449996,92.066666 9.6666705,92 8.9,92 L4.15,92 C3.349996,92 2.483338,92.066666 1.55,92.2 C2.350004,90.466658 3.41666,88.066682 4.75,85 C6.08334,81.933318 7.549992,78.466686 9.15,74.6 C10.750008,70.733314 12.4666575,66.5833555 14.3,62.15 C16.1333425,57.7166445 17.9666575,53.233356 19.8,48.7 C21.6333425,44.166644 23.4333245,39.700022 25.2,35.3 C26.9666755,30.899978 28.583326,26.800019 30.05,23 C30.71667,23.133334 31.349997,23.2499995 31.95,23.35 C32.550003,23.4500005 33.18333,23.5 33.85,23.5 C34.51667,23.5 35.149997,23.4500005 35.75,23.35 C36.350003,23.2499995 36.98333,23.133334 37.65,23 C39.783344,28.666695 42.0666545,34.733301 44.5,41.2 C46.9333455,47.666699 49.383321,54.0166355 51.85,60.25 C54.316679,66.4833645 56.716655,72.399972 59.05,78 C61.383345,83.600028 63.516657,88.333314 65.45,92.2 Z M91.25,46.9 C86.716644,46.9 84.45,51.299956 84.45,60.1 C84.45,62.300011 84.649998,64.1499925 85.05,65.65 C85.450002,67.1500075 85.9666635,68.366662 86.6,69.3 C87.2333365,70.233338 87.9333295,70.899998 88.7,71.3 C89.4666705,71.700002 90.249996,71.9 91.05,71.9 C93.250011,71.9 94.883328,70.933343 95.95,69 C97.016672,67.066657 97.55,63.800023 97.55,59.2 C97.55,54.666644 96.950006,51.4833425 95.75,49.65 C94.549994,47.8166575 93.050009,46.9 91.25,46.9 Z M106.15,47.9 C107.816675,49.100006 109.133328,50.6166575 110.1,52.45 C111.066671,54.2833425 111.55,56.466654 111.55,59 C111.55,61.466679 111.083338,63.7166565 110.15,65.75 C109.216662,67.7833435 107.900008,69.533326 106.2,71 C104.499991,72.466674 102.466678,73.599996 100.1,74.4 C97.7333215,75.200004 95.083348,75.6 92.15,75.6 C91.416663,75.6 90.7000035,75.5833335 90,75.55 C89.2999965,75.5166665 88.516671,75.5 87.65,75.5 C86.849996,75.5 86.1666695,75.866663 85.6,76.6 C85.0333305,77.333337 84.75,78.166662 84.75,79.1 C84.75,80.700008 85.3666605,81.966662 86.6,82.9 C87.8333395,83.833338 89.78332,84.333333 92.45,84.4 L99.85,84.5 C105.450028,84.566667 109.566653,85.6166565 112.2,87.65 C114.833346,89.6833435 116.15,92.933311 116.15,97.4 C116.15,101.40002 115.333341,104.749987 113.7,107.45 C112.066658,110.150014 109.966679,112.349992 107.4,114.05 C104.83332,115.750009 101.983349,116.966663 98.85,117.7 C95.716651,118.433337 92.683348,118.8 89.75,118.8 C83.483302,118.8 78.6000175,117.583346 75.1,115.15 C71.5999825,112.716655 69.85,109.50002 69.85,105.5 C69.85,102.299984 70.7333245,99.7166765 72.5,97.75 C74.2666755,95.7833235 76.649985,94.233339 79.65,93.1 L79.65,92.9 C77.916658,92.299997 76.5333385,91.3833395 75.5,90.15 C74.4666615,88.9166605 73.95,87.366676 73.95,85.5 C73.95,83.299989 74.7999915,81.166677 76.5,79.1 C78.2000085,77.033323 80.449986,75.633337 83.25,74.9 L83.25,74.7 C79.183313,73.699995 76.050011,71.900013 73.85,69.3 C71.583322,66.63332 70.45,63.166688 70.45,58.9 C70.45,56.366654 70.9666615,54.10001 72,52.1 C73.0333385,50.09999 74.483324,48.4166735 76.35,47.05 C78.216676,45.6833265 80.449987,44.633337 83.05,43.9 C85.650013,43.166663 88.516651,42.8 91.65,42.8 C92.85,42.8 94.083327,42.8499995 95.35,42.95 C96.616673,43.0500005 97.849994,43.133333 99.05,43.2 C99.916671,43.266667 100.799995,43.3166665 101.7,43.35 C102.600004,43.3833335 103.583328,43.4 104.65,43.4 C106.316675,43.4 108.049991,43.3833335 109.85,43.35 C111.650009,43.3166665 113.449991,43.3 115.25,43.3 C115.183333,43.700002 115.133333,44.099998 115.1,44.5 C115.066666,44.900002 115.05,45.299998 115.05,45.7 C115.05,46.100002 115.066666,46.499998 115.1,46.9 C115.133333,47.300002 115.183333,47.699998 115.25,48.1 L106.45,47.7 L106.15,47.9 Z M104.55,102.8 C104.55,100.866657 104.21667,99.2833395 103.55,98.05 C102.88333,96.8166605 101.933339,95.86667 100.7,95.2 C99.4666605,94.53333 97.950009,94.0833345 96.15,93.85 C94.349991,93.6166655 92.316678,93.5 90.05,93.5 C86.583316,93.5 84.18334,93.83333 82.85,94.5 C82.049996,94.900002 81.2000045,95.866659 80.3,97.4 C79.3999955,98.933341 78.95,100.866655 78.95,103.2 C78.95,105.133343 79.2999965,106.81666 80,108.25 C80.7000035,109.683341 81.649994,110.866662 82.85,111.8 C84.050006,112.733338 85.4333255,113.449998 87,113.95 C88.5666745,114.450003 90.249991,114.7 92.05,114.7 C93.983343,114.7 95.716659,114.383337 97.25,113.75 C98.783341,113.116664 100.099994,112.250006 101.2,111.15 C102.300005,110.049995 103.13333,108.783341 103.7,107.35 C104.266669,105.91666 104.55,104.400008 104.55,102.8 Z M122.85,25.2 C122.85,22.999989 123.616659,21.133341 125.15,19.6 C126.683341,18.066659 128.549989,17.3 130.75,17.3 C132.950011,17.3 134.816659,18.066659 136.35,19.6 C137.883341,21.133341 138.65,22.999989 138.65,25.2 C138.65,27.400011 137.883341,29.266659 136.35,30.8 C134.816659,32.333341 132.950011,33.1 130.75,33.1 C128.549989,33.1 126.683341,32.333341 125.15,30.8 C123.616659,29.266659 122.85,27.400011 122.85,25.2 Z M124.05,66.3 C124.05,62.233313 124,58.4166845 123.9,54.85 C123.799999,51.2833155 123.583335,47.700018 123.25,44.1 C124.183338,44.233334 125.283327,44.3499995 126.55,44.45 C127.816673,44.5500005 129.216659,44.6 130.75,44.6 C133.883349,44.6 136.383324,44.433335 138.25,44.1 C137.916665,47.700018 137.7,51.2833155 137.6,54.85 C137.499999,58.4166845 137.45,62.233313 137.45,66.3 L137.45,70.3 C137.45,74.366687 137.499999,78.199982 137.6,81.8 C137.7,85.400018 137.916665,88.86665 138.25,92.2 C137.383329,92.066666 136.300006,92 135,92 L126.55,92 C125.283327,92 124.183338,92.066666 123.25,92.2 C123.583335,88.86665 123.799999,85.400018 123.9,81.8 C124,78.199982 124.05,74.366687 124.05,70.3 L124.05,66.3 Z M151.85,51.4 C151.85,44.866634 151.783334,38.866694 151.65,33.4 C151.516666,27.933306 151.316668,22.400028 151.05,16.8 C151.916671,16.933334 153.01666,17.0499995 154.35,17.15 C155.68334,17.2500005 157.083326,17.3 158.55,17.3 C160.016674,17.3 161.41666,17.2500005 162.75,17.15 C164.08334,17.0499995 165.183329,16.933334 166.05,16.8 C165.783332,22.400028 165.583334,27.933306 165.45,33.4 C165.316666,38.866694 165.25,44.866634 165.25,51.4 L165.25,57.9 C165.25,64.433366 165.316666,70.433306 165.45,75.9 C165.583334,81.366694 165.783332,86.799973 166.05,92.2 C165.183329,92.066666 164.08334,92 162.75,92 L154.35,92 C153.01666,92 151.916671,92.066666 151.05,92.2 C151.316668,86.799973 151.516666,81.366694 151.65,75.9 C151.783334,70.433306 151.85,64.433366 151.85,57.9 L151.85,51.4 Z M190.55,68.3 C190.55,70.96668 190.816664,73.466655 191.35,75.8 C191.883336,78.133345 192.699994,80.1499915 193.8,81.85 C194.900005,83.5500085 196.299991,84.8833285 198,85.85 C199.700008,86.8166715 201.683322,87.3 203.95,87.3 C208.550023,87.3 212.649982,85.800015 216.25,82.8 L217.45,83.7 L215.25,89.3 C213.583325,90.566673 211.583345,91.5833295 209.25,92.35 C206.916655,93.1166705 203.850019,93.5 200.05,93.5 C196.783317,93.5 193.683348,93.0500045 190.75,92.15 C187.816652,91.2499955 185.233344,89.766677 183,87.7 C180.766655,85.633323 179.000006,83.0166825 177.7,79.85 C176.399993,76.6833175 175.75,72.900022 175.75,68.5 C175.75,64.166645 176.333327,60.400016 177.5,57.2 C178.666672,53.999984 180.283323,51.333344 182.35,49.2 C184.416677,47.066656 186.866652,45.466672 189.7,44.4 C192.533347,43.333328 195.61665,42.8 198.95,42.8 C205.550033,42.8 210.599982,44.733314 214.1,48.6 C217.600017,52.466686 219.35,57.933298 219.35,65 L219.35,67.1 C219.35,67.700003 219.316667,68.099999 219.25,68.3 L190.55,68.3 Z M205.95,63.8 C205.816666,58.799975 205.200005,54.800015 204.1,51.8 C202.999995,48.799985 201.150013,47.3 198.55,47.3 C197.083326,47.3 195.850005,47.799995 194.85,48.8 C193.849995,49.800005 193.050003,51.0833255 192.45,52.65 C191.849997,54.2166745 191.400001,55.9833235 191.1,57.95 C190.799998,59.9166765 190.616667,61.866657 190.55,63.8 L205.95,63.8 Z M262.85,73.2 C262.85,68.53331 261.80001,65.0500115 259.7,62.75 C257.599989,60.4499885 254.55002,59.3 250.55,59.3 C249.616662,59.3 248.81667,59.3166665 248.15,59.35 C247.48333,59.3833335 246.850003,59.4 246.25,59.4 C246.25,60.800007 246.233334,62.2499925 246.2,63.75 C246.166666,65.2500075 246.15,67.033323 246.15,69.1 C246.15,70.700008 246.166666,72.333325 246.2,74 C246.233334,75.666675 246.25,77.299992 246.25,78.9 C246.25,80.500008 246.266667,81.96666 246.3,83.3 C246.333334,84.63334 246.35,85.733329 246.35,86.6 C247.283338,86.666667 248.149996,86.7166665 248.95,86.75 C249.750004,86.7833335 250.716661,86.8 251.85,86.8 C253.316674,86.8 254.71666,86.500003 256.05,85.9 C257.38334,85.299997 258.549995,84.4166725 259.55,83.25 C260.550005,82.0833275 261.349997,80.666675 261.95,79 C262.550003,77.333325 262.85,75.400011 262.85,73.2 Z M262.15,40.9 C262.15,39.299992 261.966668,37.7833405 261.6,36.35 C261.233332,34.9166595 260.616671,33.6833385 259.75,32.65 C258.883329,31.6166615 257.78334,30.7833365 256.45,30.15 C255.11666,29.5166635 253.45001,29.2 251.45,29.2 C249.983326,29.2 248.96667,29.2166665 248.4,29.25 C247.833331,29.2833335 247.21667,29.366666 246.55,29.5 C246.416666,31.966679 246.316667,34.466654 246.25,37 C246.183333,39.533346 246.15,41.666658 246.15,43.4 C246.15,45.2 246.166666,46.9166585 246.2,48.55 C246.233334,50.1833415 246.25,51.866658 246.25,53.6 L250.75,53.6 C252.150007,53.6 253.533327,53.333336 254.9,52.8 C256.266673,52.266664 257.483328,51.4833385 258.55,50.45 C259.616672,49.4166615 260.48333,48.100008 261.15,46.5 C261.81667,44.899992 262.15,43.033344 262.15,40.9 Z M231.35,51.2 C231.35,45.666639 231.283334,40.7500215 231.15,36.45 C231.016666,32.1499785 230.816668,27.833355 230.55,23.5 C231.683339,23.633334 232.91666,23.7499995 234.25,23.85 C235.58334,23.9500005 237.083325,24 238.75,24 C241.616681,24 244.616651,23.9166675 247.75,23.75 C250.883349,23.5833325 253.883319,23.5 256.75,23.5 C259.750015,23.5 262.483321,23.799997 264.95,24.4 C267.416679,25.000003 269.549991,25.9166605 271.35,27.15 C273.150009,28.3833395 274.533329,29.9833235 275.5,31.95 C276.466671,33.9166765 276.95,36.266653 276.95,39 C276.95,41.733347 276.383339,44.0833235 275.25,46.05 C274.116661,48.0166765 272.733342,49.6499935 271.1,50.95 C269.466658,52.2500065 267.700009,53.266663 265.8,54 C263.899991,54.733337 262.183341,55.233332 260.65,55.5 L260.65,55.7 C262.183341,55.766667 263.983323,56.1166635 266.05,56.75 C268.116677,57.3833365 270.083324,58.36666 271.95,59.7 C273.816676,61.03334 275.399993,62.7499895 276.7,64.85 C278.000006,66.9500105 278.65,69.499985 278.65,72.5 C278.65,76.100018 278.000006,79.166654 276.7,81.7 C275.399993,84.233346 273.666677,86.299992 271.5,87.9 C269.333323,89.500008 266.850014,90.6166635 264.05,91.25 C261.249986,91.8833365 258.350015,92.2 255.35,92.2 C252.68332,92.2 250.200011,92.166667 247.9,92.1 C245.599988,92.033333 243.183346,92 240.65,92 L235.1,92 C233.19999,92 231.683339,92.066666 230.55,92.2 C230.816668,88.066646 231.016666,83.8500215 231.15,79.55 C231.283334,75.2499785 231.35,70.333361 231.35,64.8 L231.35,51.2 Z M312.25,75.5 C313.450006,72.433318 314.549995,69.5833465 315.55,66.95 C316.550005,64.3166535 317.499996,61.766679 318.4,59.3 C319.300005,56.833321 320.166663,54.366679 321,51.9 C321.833337,49.433321 322.683329,46.833347 323.55,44.1 C324.283337,44.233334 324.966664,44.3499995 325.6,44.45 C326.233337,44.5500005 326.88333,44.6 327.55,44.6 C328.21667,44.6 328.88333,44.5500005 329.55,44.45 C330.21667,44.3499995 330.949996,44.233334 331.75,44.1 C331.416665,44.966671 330.63334,46.8166525 329.4,49.65 C328.166661,52.4833475 326.666675,55.9833125 324.9,60.15 C323.133325,64.3166875 321.183344,68.933308 319.05,74 C316.916656,79.066692 314.766678,84.1833075 312.6,89.35 C310.433323,94.5166925 308.333344,99.633308 306.3,104.7 C304.266657,109.766692 302.483341,114.366646 300.95,118.5 C300.216663,118.366666 299.51667,118.25 298.85,118.15 C298.18333,118.049999 297.483337,118 296.75,118 C296.016663,118 295.31667,118.049999 294.65,118.15 C293.98333,118.25 293.283337,118.366666 292.55,118.5 C294.750011,114.099978 296.916656,109.750022 299.05,105.45 C301.183344,101.149979 303.24999,96.800022 305.25,92.4 C303.649992,88.599981 301.866677,84.300024 299.9,79.5 C297.933323,74.699976 296.000009,70.000023 294.1,65.4 C292.199991,60.799977 290.466675,56.600019 288.9,52.8 C287.333326,48.999981 286.150004,46.10001 285.35,44.1 C286.616673,44.233334 287.866661,44.3499995 289.1,44.45 C290.33334,44.5500005 291.583327,44.6 292.85,44.6 C294.116673,44.6 295.349994,44.5500005 296.55,44.45 C297.750006,44.3499995 298.983327,44.233334 300.25,44.1 C302.183343,49.366693 304.133324,54.599974 306.1,59.8 C308.066677,65.000026 310.116656,70.233307 312.25,75.5 Z M365.15,44.6 C364.949999,45.600005 364.85,46.499996 364.85,47.3 C364.85,48.166671 364.949999,48.999996 365.15,49.8 L356.35,49.6 C356.216666,51.133341 356.1,52.89999 356,54.9 C355.899999,56.90001 355.833333,58.933323 355.8,61 C355.766666,63.066677 355.733333,65.066657 355.7,67 C355.666666,68.933343 355.65,70.56666 355.65,71.9 C355.65,75.366684 355.733332,78.166656 355.9,80.3 C356.066667,82.433344 356.349998,84.066661 356.75,85.2 C357.150002,86.333339 357.716663,87.099998 358.45,87.5 C359.183337,87.900002 360.116661,88.1 361.25,88.1 C362.516673,88.1 363.449997,88.0166675 364.05,87.85 C364.650003,87.6833325 365.249997,87.433335 365.85,87.1 L365.85,91.2 C364.51666,91.800003 362.85001,92.333331 360.85,92.8 C358.84999,93.266669 356.883343,93.5 354.95,93.5 C346.483291,93.5 342.25,88.433384 342.25,78.3 C342.25,76.366657 342.283333,74.1833455 342.35,71.75 C342.416667,69.3166545 342.499999,66.8166795 342.6,64.25 C342.7,61.6833205 342.783333,59.1500125 342.85,56.65 C342.916667,54.1499875 342.95,51.833344 342.95,49.7 L335.95,49.8 C336.150001,48.999996 336.25,48.166671 336.25,47.3 C336.25,46.499996 336.150001,45.600005 335.95,44.6 L342.95,44.9 C342.95,42.833323 342.916667,40.900009 342.85,39.1 C342.783333,37.299991 342.683334,35.133346 342.55,32.6 C344.883345,31.666662 347.183322,30.6833385 349.45,29.65 C351.716678,28.6166615 353.983322,27.533339 356.25,26.4 L357.25,27.1 C357.116666,28.166672 357,29.4166595 356.9,30.85 C356.799999,32.2833405 356.7,33.7833255 356.6,35.35 C356.499999,36.9166745 356.433333,38.5166585 356.4,40.15 C356.366666,41.7833415 356.35,43.333326 356.35,44.8 L365.15,44.6 Z M384.95,68.3 C384.95,70.96668 385.216664,73.466655 385.75,75.8 C386.283336,78.133345 387.099995,80.1499915 388.2,81.85 C389.300006,83.5500085 390.699992,84.8833285 392.4,85.85 C394.100009,86.8166715 396.083322,87.3 398.35,87.3 C402.950023,87.3 407.049982,85.800015 410.65,82.8 L411.85,83.7 L409.65,89.3 C407.983325,90.566673 405.983345,91.5833295 403.65,92.35 C401.316655,93.1166705 398.250019,93.5 394.45,93.5 C391.183317,93.5 388.083348,93.0500045 385.15,92.15 C382.216652,91.2499955 379.633345,89.766677 377.4,87.7 C375.166656,85.633323 373.400007,83.0166825 372.1,79.85 C370.799994,76.6833175 370.15,72.900022 370.15,68.5 C370.15,64.166645 370.733328,60.400016 371.9,57.2 C373.066673,53.999984 374.683323,51.333344 376.75,49.2 C378.816677,47.066656 381.266653,45.466672 384.1,44.4 C386.933348,43.333328 390.01665,42.8 393.35,42.8 C399.950033,42.8 404.999983,44.733314 408.5,48.6 C412.000018,52.466686 413.75,57.933298 413.75,65 L413.75,67.1 C413.75,67.700003 413.716667,68.099999 413.65,68.3 L384.95,68.3 Z M400.35,63.8 C400.216666,58.799975 399.600006,54.800015 398.5,51.8 C397.399995,48.799985 395.550013,47.3 392.95,47.3 C391.483326,47.3 390.250005,47.799995 389.25,48.8 C388.249995,49.800005 387.450003,51.0833255 386.85,52.65 C386.249997,54.2166745 385.800002,55.9833235 385.5,57.95 C385.199998,59.9166765 385.016667,61.866657 384.95,63.8 L400.35,63.8 Z" id="AgileByte" fill="#1C3ED3"></path>
            <path d="M437.5,21.6 C442.6,21.6 447,23.4 450.65,27 C454.25,30.6 456.05,35 456.05,40.15 C456.05,45.25 454.25,49.65 450.65,53.3 C447,56.9 442.6,58.7 437.5,58.7 C432.35,58.7 427.95,56.9 424.35,53.3 C420.75,49.65 418.95,45.25 418.95,40.15 C418.95,35 420.75,30.6 424.35,27 C427.95,23.4 432.35,21.6 437.5,21.6 Z M437.5,24.65 C433.2,24.65 429.55,26.15 426.55,29.2 C423.5,32.2 422,35.85 422,40.15 C422,44.4 423.5,48.05 426.55,51.1 C429.55,54.1 433.2,55.65 437.5,55.65 C441.75,55.65 445.4,54.1 448.45,51.1 C451.45,48.05 453,44.4 453,40.15 C453,35.85 451.45,32.2 448.45,29.2 C445.4,26.15 441.75,24.65 437.5,24.65 Z M428.45,29.1 L438.15,29.1 C440.55,29.1 442.5,29.6 443.9,30.65 C445.4,31.8 446.2,33.5 446.2,35.7 C446.2,38.15 445.05,39.8 442.85,40.7 C443.95,41 444.75,41.75 445.25,42.9 C445.65,43.7 445.85,44.8 445.95,46.1 C446.05,48.4 446.7,50.1 447.8,51.2 L442.25,51.2 C441.65,50.3 441.3,48.9 441.1,47 C440.9,45.4 440.6,44.35 440.2,43.8 C439.6,43.05 438.6,42.7 437.15,42.7 L433.35,42.7 L433.35,51.2 L428.45,51.2 L428.45,29.1 Z M433.35,33.2 L433.35,38.55 L437.65,38.55 C438.85,38.55 439.75,38.3 440.4,37.9 C441,37.4 441.3,36.75 441.3,35.85 C441.3,34.05 440.05,33.2 437.65,33.2 L433.35,33.2 Z" id="®" fill="#000000"></path>
        </g>
    </g>
</svg>