<svg xmlns="http://www.w3.org/2000/svg" xmlns:xlink="http://www.w3.org/1999/xlink" width="100" height="100" viewBox="0 0 100 100"><g><g style="fill:#1c3ed3"><svg fill="#1c3ed3" xmlns="http://www.w3.org/2000/svg" xmlns:xlink="http://www.w3.org/1999/xlink" version="1.1" x="0px" y="0px" viewBox="0 0 164 164" enable-background="new 0 0 164 164" xml:space="preserve"><g><g><path d="M78.8,145.6c0-0.5-0.4-1-1-1h-24c-0.5,0-1,0.4-1,1c0,0.5,0.4,1,1,1h24C78.4,146.5,78.8,146.1,78.8,145.6z"></path></g><g><path d="M86.6,145.6c0-0.5-0.4-1-1-1h-3.9c-0.5,0-1,0.4-1,1c0,0.5,0.4,1,1,1h3.9C86.2,146.5,86.6,146.1,86.6,145.6z"></path></g><g><path d="M89,146.5h2.6c0.5,0,1-0.4,1-1c0-0.5-0.4-1-1-1H89c-0.5,0-1,0.4-1,1C88,146.1,88.4,146.5,89,146.5z"></path></g><g><path d="M108.3,149.4h-24c-0.5,0-1,0.4-1,1c0,0.5,0.4,1,1,1h24c0.5,0,1-0.4,1-1C109.3,149.8,108.9,149.4,108.3,149.4z"></path></g><g><path d="M80.5,149.4h-3.9c-0.5,0-1,0.4-1,1c0,0.5,0.4,1,1,1h3.9c0.5,0,1-0.4,1-1C81.5,149.8,81.1,149.4,80.5,149.4z"></path></g><g><path d="M73.2,149.4h-2.6c-0.5,0-1,0.4-1,1c0,0.5,0.4,1,1,1h2.6c0.5,0,1-0.4,1-1C74.2,149.8,73.8,149.4,73.2,149.4z"></path></g><g><g><path d="M163,52.2c0-17.2-13.7-31.3-30.9-31.9C117.8,8.4,99.7,1.9,81.1,1.9C36.9,1.9,1,37.8,1,82c0,43.8,35.6,80.1,80.1,80.1     c0,0,0,0,0,0c44,0,80.1-35.8,80.1-80.1c0-5.2-0.5-10.5-1.5-15.6C161.8,62.1,163,57.3,163,52.2z M161,52.2     c0,18.2-16.2,32.2-34.1,29.6c-0.3,0-0.6,0.1-0.8,0.3l-12.5,12.5V77c0-0.3-0.1-0.6-0.4-0.8c-2.4-1.8-4.6-4-6.3-6.4     c0.1-2.2-0.8-4.2-2.3-5.6c2.5-7.4,2.2-15.7-1.3-23.1c4.5-11.3,15.6-18.9,27.8-18.9C147.6,22.2,161,35.7,161,52.2z M98.4,76.1     c0,12.9-10.5,23.4-23.4,23.4c-4.4,0-8.7-1.3-12.4-3.6c1.9-0.4,3.3-2.1,3.3-4.1c0-2.3-1.9-4.2-4.2-4.2h-3c-1.3,0-2.4,0.6-3.2,1.5     c-5-7.4-4-11.3-4-39.5c5.3,5.1,14.1,8.6,23.4,8.6c9.4,0,18.2-3.5,23.4-8.6v13.4l0,0C98.4,63.5,98.4,76.5,98.4,76.1z M59.6,96.4     c4.4,3.3,9.8,5.1,15.3,5.1c5.7,0,11-1.9,15.3-5.1v7c0,5.3-7.7,8.1-15.3,8.1c-7.6,0-15.3-2.8-15.3-8.1V96.4z M58.7,94.1L58.7,94.1     L58.7,94.1L58.7,94.1c-1.3,0-2.3-1-2.3-2.2c0-1.2,1-2.2,2.2-2.2h3c1.2,0,2.2,1,2.2,2.2c0,1.2-1,2.2-2.2,2.2H58.7z M49.5,64.2     v10.9C43.4,74,43.4,65.3,49.5,64.2z M47.5,44.1c0.5,1.2,1.2,2.3,2,3.4v14.7c-0.9,0.1-1.8,0.4-2.5,0.8C45,56.6,45.3,50,47.5,44.1z      M48.2,76.8c0.4,0.1,0.9,0.2,1.4,0.3c0.2,5,1.8,9.7,4.7,13.8h-0.4c-3.1,0-5.7-2.5-5.7-5.7V76.8z M74.9,56.3c-27.6,0-42-29,0-29     C116.7,27.2,102.9,56.3,74.9,56.3z M102.4,44.1c2.2,5.8,2.5,12.4,0.5,18.9c-0.8-0.4-1.6-0.7-2.5-0.8V47.4     C101.2,46.4,101.9,45.2,102.4,44.1z M100.4,64.2c6,1.1,6,9.8,0,10.9V64.2z M24.8,136.1C11.3,122.1,3,103,3,82     C3,38.9,38,3.9,81.1,3.9c17.4,0,34.3,5.8,47.9,16.5c-11,0.7-20.9,7.1-26,16.7c-2-7.2-12.5-11.8-28.1-11.8     c-14.3,0-29.8,4.4-28.3,15.8c-3.6,7.6-3.8,15.9-1.4,23.2c-3.5,3.3-3,8.9,0.9,11.6v9.4c0,4.2,3.4,7.6,7.6,7.6h0.7     c0.4,1.5,1.6,2.7,3.1,3.1v1.9c-18.2,0.4-32.8,15.2-32.8,33.5V136.1z M26.8,131.3c0-17.2,13.8-31.1,30.9-31.5v3.6     c0,7.4,9.8,10.1,17.3,10.1c8.3,0,17.3-3.2,17.3-10.1v-3.6c17.1,0.4,30.9,14.4,30.9,31.5v6.3h-16.1c0-15.3,0.3-15.5-1-15.5     c-1.4,0-1,0.6-1,15.5H44.9v-14.5c0-0.5-0.4-1-1-1c-0.5,0-1,0.4-1,1v14.5H26.8V131.3z M81.1,160.1     C81.1,160.1,81.1,160.1,81.1,160.1c-19.1,0-38-7-52.8-20.6c13.2,0,92.3,0,105.5,0C119.4,152.9,100.4,160.1,81.1,160.1z      M135.9,137.6H125v-6.3c0-18.2-14.7-33.1-32.8-33.5v-3.1c4.8-4.5,7.9-10.7,8.1-17.7c2.8-0.4,5-2.2,6-4.7c1.6,1.9,3.3,3.6,5.3,5.1     V97c0,0.4,0.2,0.8,0.6,0.9c0.1,0.1,0.3,0.1,0.4,0.1c0.3,0,0.5-0.1,0.7-0.3l13.9-13.9c12.3,1.5,24.3-4.2,31-14.8     c0.7,4.3,1.1,8.6,1.1,12.9C159.2,103.7,150.3,123.4,135.9,137.6z"></path></g><g><path d="M131.1,63.6c6.3,0,11.4-5.1,11.4-11.4c0-6.3-5.1-11.4-11.4-11.4c-6.3,0-11.4,5.1-11.4,11.4     C119.7,58.5,124.8,63.6,131.1,63.6z M131.1,42.7c5.2,0,9.4,4.2,9.4,9.4c0,5.2-4.2,9.4-9.4,9.4c-5.2,0-9.4-4.2-9.4-9.4     C121.6,47,125.9,42.7,131.1,42.7z"></path></g><g><path d="M114.6,43.7c-0.5,0.9-0.9,1.9-1.2,2.8c-3.8,1.2-4.6,1.2-4.6,2.2c0,6.9-0.3,7.6,0.7,7.9l3.9,1.3c0.3,1,0.7,1.9,1.2,2.8     l-1.9,3.7c-0.2,0.4-0.1,0.8,0.2,1.2l4.9,4.9c0.3,0.3,0.8,0.4,1.2,0.2l3.7-1.9c0.9,0.5,1.9,0.9,2.8,1.2l1.3,3.9     c0.1,0.4,0.5,0.7,0.9,0.7h6.9c0.4,0,0.8-0.3,0.9-0.7l1.3-3.9c1-0.3,1.9-0.7,2.8-1.2l3.7,1.9c0.4,0.2,0.8,0.1,1.2-0.2l4.9-4.9     c0.3-0.3,0.4-0.8,0.2-1.2l-1.9-3.7c0.5-0.9,0.9-1.9,1.2-2.8l3.9-1.3c0.4-0.1,0.7-0.5,0.7-0.9v-6.9c0-0.4-0.3-0.8-0.7-0.9     l-3.9-1.3c-0.3-1-0.7-1.9-1.2-2.8l1.9-3.7c0.2-0.4,0.1-0.8-0.2-1.2l-4.9-4.9c-0.3-0.3-0.8-0.4-1.2-0.2l-3.7,1.9     c-0.9-0.5-1.9-0.9-2.8-1.2l-1.3-3.9c-0.1-0.4-0.5-0.7-0.9-0.7h-6.9c-0.4,0-0.8,0.3-0.9,0.7l-1.3,3.9c-1,0.3-1.9,0.7-2.8,1.2     l-3.7-1.9c-0.4-0.2-0.8-0.1-1.2,0.2l-4.9,4.9c-0.3,0.3-0.4,0.8-0.2,1.2L114.6,43.7z M118.6,35.9l3.5,1.8c0.3,0.2,0.6,0.1,0.9,0     c1.1-0.6,2.2-1.1,3.4-1.4c0.3-0.1,0.6-0.3,0.7-0.7l1.2-3.8h5.5l1.2,3.8c0.1,0.3,0.4,0.6,0.7,0.7c1.2,0.3,2.3,0.8,3.4,1.4     c0.3,0.2,0.6,0.2,0.9,0l3.5-1.8l3.9,3.9l-1.8,3.5c-0.2,0.3-0.1,0.6,0,0.9c0.6,1.1,1.1,2.2,1.4,3.4c0.1,0.3,0.3,0.6,0.7,0.7     l3.8,1.2v5.5l-3.8,1.2c-0.3,0.1-0.6,0.4-0.6,0.7c-0.3,1.2-0.8,2.3-1.4,3.4c-0.2,0.3-0.2,0.6,0,0.9l1.8,3.5l-3.9,3.9l-3.5-1.8     c-0.3-0.2-0.6-0.1-0.9,0c-1.1,0.6-2.2,1.1-3.4,1.4c-0.3,0.1-0.6,0.3-0.7,0.6l-1.2,3.7h-5.5l-1.2-3.7c-0.1-0.3-0.4-0.6-0.7-0.6     c-1.2-0.3-2.3-0.8-3.4-1.4c-0.3-0.2-0.6-0.2-0.9,0l-3.5,1.8l-3.9-3.9l1.8-3.5c0.2-0.3,0.1-0.6,0-0.9c-0.6-1.1-1.1-2.2-1.4-3.4     c-0.1-0.3-0.3-0.6-0.7-0.7l-3.8-1.2v-5.5l3.8-1.2c0.3-0.1,0.6-0.4,0.7-0.7c0.3-1.2,0.8-2.3,1.4-3.4c0.2-0.3,0.2-0.6,0-0.9     l-1.8-3.5L118.6,35.9z"></path></g><g><path d="M84,82.1c-0.5-0.1-1.1,0.2-1.2,0.7c-0.9,3.6-4.1,6.1-7.8,6.1s-6.9-2.5-7.8-6.1c-0.1-0.5-0.7-0.8-1.2-0.7     c-0.5,0.1-0.8,0.7-0.7,1.2c1.1,4.5,5.2,7.6,9.7,7.6c4.6,0,8.6-3.1,9.7-7.6C84.8,82.8,84.5,82.3,84,82.1z"></path></g><g><path d="M75.6,77.8c0.5,0,1-0.4,1-1s-0.4-1-1-1c-0.9,0-1.7-0.8-1.7-1.7s0.8-1.7,1.7-1.7c0.5,0,1-0.4,1-1c0-0.5-0.4-1-1-1     c-2,0-3.7,1.7-3.7,3.7C71.9,76.2,73.6,77.8,75.6,77.8z"></path></g><g><path d="M86.4,63.8c-1.9,0-3.5,1.6-3.5,3.5c0,1.9,1.6,3.5,3.5,3.5c1.9,0,3.5-1.6,3.5-3.5C89.8,65.4,88.3,63.8,86.4,63.8z      M86.4,68.8c-0.8,0-1.5-0.7-1.5-1.5c0-0.8,0.7-1.5,1.5-1.5c0.8,0,1.5,0.7,1.5,1.5C87.9,68.1,87.2,68.8,86.4,68.8z"></path></g><g><path d="M86.4,59.5L86.4,59.5c-2.3,0-4.3,0.9-5.4,2.4c-0.3,0.4-0.2,1.1,0.2,1.4c0.2,0.1,0.4,0.2,0.6,0.2c0.3,0,0.6-0.1,0.8-0.4     c0.7-1,2.2-1.6,3.8-1.6h0c1.6,0,3.1,0.6,3.8,1.6c0.3,0.4,0.9,0.5,1.4,0.2c0.4-0.3,0.5-0.9,0.2-1.4C90.7,60.4,88.6,59.5,86.4,59.5     z"></path></g><g><path d="M67,67.3c0-1.9-1.6-3.5-3.5-3.5c-1.9,0-3.5,1.6-3.5,3.5c0,1.9,1.6,3.5,3.5,3.5C65.4,70.8,67,69.2,67,67.3z M63.5,68.8     c-0.8,0-1.5-0.7-1.5-1.5c0-0.8,0.7-1.5,1.5-1.5c0.8,0,1.5,0.7,1.5,1.5C65,68.1,64.3,68.8,63.5,68.8z"></path></g><g><path d="M63.5,61.4c1.6,0,3.1,0.6,3.8,1.6c0.2,0.3,0.5,0.4,0.8,0.4c0.2,0,0.4-0.1,0.6-0.2c0.4-0.3,0.5-0.9,0.2-1.4     c-1.1-1.5-3.1-2.4-5.4-2.4h0c-2.3,0-4.3,0.9-5.4,2.4c-0.3,0.4-0.2,1.1,0.2,1.4c0.4,0.3,1.1,0.2,1.4-0.2     C60.4,62.1,61.9,61.4,63.5,61.4L63.5,61.4z"></path></g><g><path d="M35.1,93.4c0.4-0.2,0.6-0.5,0.6-0.9v-4.9c1.8-0.1,3.2-1.5,3.2-3.3V73.2c0-1.8-1.5-3.3-3.3-3.3H14.8     c-1.8,0-3.3,1.5-3.3,3.3v11.1c0,1.8,1.5,3.3,3.3,3.3h13.7l5.5,5.6c0.2,0.2,0.4,0.3,0.7,0.3C34.8,93.5,34.9,93.4,35.1,93.4z      M33.7,86.6v3.5l-4.1-4.2c-0.2-0.2-0.4-0.3-0.7-0.3H14.8c-0.7,0-1.3-0.6-1.3-1.3V73.2c0-0.7,0.6-1.3,1.3-1.3h20.8     c0.7,0,1.3,0.6,1.3,1.3v11.1c0,0.7-0.6,1.3-1.3,1.3h-0.9C34.1,85.6,33.7,86.1,33.7,86.6z"></path></g><g><path d="M32.7,74.8h-15c-0.5,0-1,0.4-1,1c0,0.5,0.4,1,1,1h15c0.5,0,1-0.4,1-1C33.6,75.3,33.2,74.8,32.7,74.8z"></path></g><g><path d="M32.7,80.8h-15c-0.5,0-1,0.4-1,1c0,0.5,0.4,1,1,1h15c0.5,0,1-0.4,1-1C33.6,81.2,33.2,80.8,32.7,80.8z"></path></g></g></g></svg></g></g></svg>