<svg xmlns="http://www.w3.org/2000/svg" xmlns:xlink="http://www.w3.org/1999/xlink" width="100" height="100" viewBox="0 0 100 100"><g><g style="fill:#1c3ed3"><svg fill="#1c3ed3" xmlns="http://www.w3.org/2000/svg" xmlns:xlink="http://www.w3.org/1999/xlink" version="1.1" x="0px" y="0px" viewBox="0 0 165 165" enable-background="new 0 0 165 165" xml:space="preserve"><g><g><g><path d="M86.7,19.4c-1.7,0-3.1,1.4-3.1,3.1c0,1.7,1.4,3.1,3.1,3.1c1.7,0,3.1-1.4,3.1-3.1C89.8,20.8,88.4,19.4,86.7,19.4z      M86.7,23.5c-0.6,0-1.1-0.5-1.1-1.1c0-0.6,0.5-1.1,1.1-1.1c0.6,0,1.1,0.5,1.1,1.1C87.8,23.1,87.3,23.5,86.7,23.5z"></path></g><g><path d="M94.7,19.4c-1.7,0-3.1,1.4-3.1,3.1c0,1.7,1.4,3.1,3.1,3.1c1.7,0,3.1-1.4,3.1-3.1C97.8,20.8,96.4,19.4,94.7,19.4z      M94.7,23.5c-0.6,0-1.1-0.5-1.1-1.1c0-0.6,0.5-1.1,1.1-1.1c0.6,0,1.1,0.5,1.1,1.1C95.8,23.1,95.3,23.5,94.7,23.5z"></path></g><g><path d="M102.8,19.4c-1.7,0-3.1,1.4-3.1,3.1c0,1.7,1.4,3.1,3.1,3.1c1.7,0,3.1-1.4,3.1-3.1C105.9,20.8,104.5,19.4,102.8,19.4z      M102.8,23.5c-0.6,0-1.1-0.5-1.1-1.1c0-0.6,0.5-1.1,1.1-1.1c0.6,0,1.1,0.5,1.1,1.1C103.9,23.1,103.4,23.5,102.8,23.5z"></path></g><g><path d="M140.3,19.4h-29.1c-1.7,0-3.1,1.4-3.1,3.1c0,1.7,1.4,3.1,3.1,3.1h29.1c1.7,0,3.1-1.4,3.1-3.1     C143.3,20.8,142,19.4,140.3,19.4z M140.3,23.5h-29.1c-0.6,0-1.1-0.5-1.1-1.1c0-0.6,0.5-1.1,1.1-1.1h29.1c0.6,0,1.1,0.5,1.1,1.1     C141.3,23.1,140.9,23.5,140.3,23.5z"></path></g><g><path d="M163.5,82.5c0-16.8-5.1-32.9-14.7-46.5V22c0-3.7-3-6.6-6.6-6.6h-14.4C114.4,6.3,98.8,1.5,82.5,1.5c-44.7,0-81,36.3-81,81     C1.5,98,5.9,113,14.1,126v7.8c0,3.8,3.1,7,7,7h5.1c14.9,14.4,34.5,22.5,55.2,22.8c0.4,0,0.7,0,1.1,0h0h0c0,0,0,0,0,0     C127,163.5,163.5,127.3,163.5,82.5z M161.5,82.5c0,22-9,41.9-23.6,56.2h-37.7c1.3-1.3,2.1-3,2.1-5V119c0-2.2-0.5-4.3-1.3-6.3     h41.1c3.7,0,6.6-3,6.6-6.6V39.5C157.1,52.3,161.5,67.1,161.5,82.5z M82.5,161.5C82.5,161.5,82.5,161.5,82.5,161.5     c-1.3,0-2.5,0-3.8-0.1c-18.2-0.9-35.5-7.9-49.6-20.7h66.3h40.4C121.3,154.1,102.2,161.5,82.5,161.5z M73.6,102.9v-6.3     c1.9-1.7,3.4-3.8,4.6-6.1v12.4H73.6z M80.2,29.6h5.2c-1.5,1.4-3.3,2.4-5.2,2.9V29.6z M80.2,27.6V22c0-2.5,2.1-4.6,4.6-4.6h57.4     c2.5,0,4.6,2.1,4.6,4.6v5.6H80.2z M78.4,34.9c0,0,0.1,0,0.1,0c0.2,0,0.4-0.1,0.6-0.1c0,0,0,0,0,0c0,0,0.1,0,0.1,0     c3.3-0.5,6.3-2.2,8.5-4.7c3.1,2.3,4.9,6,4.9,9.9c0,6.7-5.7,12.2-12.6,12.2h-0.4c0,0,0,0,0,0c0,0,0,0,0,0h0c0,0,0,0,0,0     c0,0,0,0,0,0H46.4c-6.4,0-10.5,5.6-10.5,9.7c0,0,0,0.5,0,0.9v7c-2.5-0.5-4.3-2.7-4.3-5.2V52.6c0-9.8,7.9-17.7,17.7-17.7H78.4z      M84.4,74.5c0,2.3-1.6,4.2-3.7,4.6v-7.4c0.8-0.1,1.5-0.3,2.2-0.7C83.9,71.9,84.4,73.2,84.4,74.5z M82.5,68.9     C82.4,69,82.4,69,82.5,68.9c-0.6,0.4-1.2,0.6-1.8,0.7V54c1.5-0.1,2.9-0.3,4.3-0.8v11.2C85,66.3,84,68,82.5,68.9z M33.6,71     c0.7,0.3,1.4,0.6,2.2,0.7v7.4c-2.1-0.5-3.7-2.4-3.7-4.6C32,73.2,32.6,71.9,33.6,71z M37.8,61.8c0.4-4.3,4.1-7.8,8.5-7.8h32.3     v16.7c0,0.1,0,0.1,0,0.1v9.3c0,11.3-9.2,20.5-20.4,20.5s-20.4-9.2-20.4-20.5V61.8z M45,98.3c8,5.9,18.7,5.8,26.6,0v9.7     c0,9.3-26.6,9.3-26.6,0V98.3z M80.2,85c0.3-1.3,0.4-2.5,0.5-3.9c3.2-0.5,5.8-3.3,5.8-6.6c0-1.8-0.7-3.4-1.9-4.6     c1.5-1.3,2.4-3.3,2.4-5.4V52.4c4.6-2.4,7.7-7.1,7.7-12.5c0-3.9-1.6-7.6-4.3-10.3h56.4v76.5c0,2.5-2.1,4.6-4.6,4.6h-42.1     c-2.8-4.7-7.9-7.8-13.7-7.8h-6.1V85z M3.5,82.5c0-43.6,35.4-79,79-79c14.8,0,29.2,4.1,41.6,11.9H84.8c-3.7,0-6.6,3-6.6,6.6v10.9     h-29c-10.9,0-19.7,8.8-19.7,19.7c0,11.9-0.8,14.4,2.4,17.3c-1.2,1.2-1.9,2.9-1.9,4.6c0,3.4,2.5,6.2,5.8,6.7     c0.3,6.1,2.9,11.6,7.1,15.5v6.3H30.2c-8.9,0-16.1,7.2-16.1,16.1v3.1C7.2,110.1,3.5,96.5,3.5,82.5z M16.1,133.7V119     c0-7.8,6.3-14.1,14.1-14.1H43v3c0,2.9,1.7,5.3,5,6.9c8.5,4.2,25.6,2.1,25.6-6.9v-3h12.8c7.8,0,14.1,6.3,14.1,14.1v14.8     c0,2.7-2.2,5-5,5h-8.9v-13.6c0-0.6-0.4-1-1-1c-0.6,0-1,0.4-1,1v13.6H32v-13.6c0-0.6-0.4-1-1-1c-0.6,0-1,0.4-1,1v13.6     c-7.2,0,2.6,0-8.9,0C18.4,138.7,16.1,136.5,16.1,133.7z"></path></g><g><path d="M80.2,146.8c0-0.6-0.4-1-1-1H55c-0.6,0-1,0.4-1,1c0,0.6,0.4,1,1,1h24.2C79.7,147.8,80.2,147.3,80.2,146.8z"></path></g><g><path d="M88.1,146.8c0-0.6-0.4-1-1-1h-4c-0.6,0-1,0.4-1,1c0,0.6,0.4,1,1,1h4C87.6,147.8,88.1,147.3,88.1,146.8z"></path></g><g><path d="M90.5,147.8h2.6c0.6,0,1-0.4,1-1c0-0.6-0.4-1-1-1h-2.6c-0.6,0-1,0.4-1,1C89.5,147.3,89.9,147.8,90.5,147.8z"></path></g><g><path d="M84.8,151.7c0,0.6,0.4,1,1,1c25.7,0,25.2,0.4,25.2-1c0-0.6-0.4-1-1-1H85.8C85.3,150.7,84.8,151.1,84.8,151.7z"></path></g><g><path d="M81.9,150.7h-4c-0.6,0-1,0.4-1,1c0,0.6,0.4,1,1,1h4c0.6,0,1-0.4,1-1C82.9,151.1,82.5,150.7,81.9,150.7z"></path></g><g><path d="M74.5,150.7h-2.6c-0.6,0-1,0.4-1,1c0,0.6,0.4,1,1,1h2.6c0.6,0,1-0.4,1-1C75.5,151.1,75.1,150.7,74.5,150.7z"></path></g><g><path d="M66.2,85.4c-0.5-0.1-1.1,0.2-1.2,0.7c-1.8,7-11.7,6.9-13.5,0c-0.1-0.5-0.7-0.9-1.2-0.7c-0.5,0.1-0.9,0.7-0.7,1.2     c2.3,9,15.1,8.9,17.4,0C67.1,86.1,66.8,85.5,66.2,85.4z"></path></g><g><path d="M58.9,81.9c0.6,0,1-0.4,1-1c0-0.6-0.4-1-1-1c-0.8,0-1.4-0.6-1.4-1.4c0-0.8,0.6-1.4,1.4-1.4c0.6,0,1-0.4,1-1     c0-0.6-0.4-1-1-1c-1.9,0-3.4,1.5-3.4,3.4C55.5,80.3,57,81.9,58.9,81.9z"></path></g><g><path d="M68.3,68.6c-1.8,0-3.2,1.4-3.2,3.2c0,1.8,1.4,3.2,3.2,3.2s3.2-1.4,3.2-3.2C71.5,70.1,70,68.6,68.3,68.6z M68.3,73     c-0.7,0-1.2-0.5-1.2-1.2c0-0.7,0.5-1.2,1.2-1.2c0.7,0,1.2,0.5,1.2,1.2C69.5,72.5,68.9,73,68.3,73z"></path></g><g><path d="M64.2,67.6c0.3,0,0.6-0.1,0.8-0.4c0.6-0.8,1.9-1.3,3.3-1.3c1.2,0,2.6,0.4,3.3,1.3c0.3,0.4,1,0.5,1.4,0.2     c0.4-0.3,0.5-1,0.2-1.4c-1-1.3-2.8-2.1-4.9-2.1c0,0,0,0,0,0c-2.1,0-3.9,0.8-4.9,2.1c-0.3,0.4-0.2,1.1,0.2,1.4     C63.8,67.5,64,67.6,64.2,67.6z"></path></g><g><path d="M51.4,71.8c0-1.8-1.4-3.2-3.2-3.2c-1.8,0-3.2,1.4-3.2,3.2c0,1.8,1.4,3.2,3.2,3.2C50,75,51.4,73.6,51.4,71.8z M48.2,73     c-0.7,0-1.2-0.5-1.2-1.2c0-0.7,0.5-1.2,1.2-1.2c0.7,0,1.2,0.5,1.2,1.2C49.4,72.5,48.9,73,48.2,73z"></path></g><g><path d="M45,67.2c1.3-1.8,5.2-1.8,6.5,0c0.2,0.3,0.5,0.4,0.8,0.4c0.2,0,0.4-0.1,0.6-0.2c0.4-0.3,0.5-1,0.2-1.4     c-1.9-2.5-5.9-2.1-4.9-2.1c-2.1,0-3.9,0.8-4.9,2.1c-0.3,0.4-0.2,1.1,0.2,1.4C44,67.7,44.6,67.6,45,67.2z"></path></g><g><path d="M94.7,99.4h37.6c2,0,3.7-1.7,3.7-3.7V72.6c0-2-1.7-3.7-3.7-3.7H94.7c-2,0-3.7,1.7-3.7,3.7v23.1     C91,97.7,92.6,99.4,94.7,99.4z M93,72.6c0-0.9,0.8-1.7,1.7-1.7h37.6c0.9,0,1.7,0.8,1.7,1.7v23.1c0,0.9-0.8,1.7-1.7,1.7H94.7     c-0.9,0-1.7-0.8-1.7-1.7V72.6z"></path></g><g><path d="M139.6,63.9c0.6,0,1-0.4,1-1V31.7c0-0.6-0.4-1-1-1c-0.6,0-1,0.4-1,1v31.2C138.6,63.5,139,63.9,139.6,63.9z"></path></g><g><path d="M129.9,35h4.6c0.6,0,1-0.4,1-1s-0.4-1-1-1h-4.6c-0.6,0-1,0.4-1,1S129.3,35,129.9,35z"></path></g><g><path d="M119,39.7h8.6c0.6,0,1-0.4,1-1c0-0.6-0.4-1-1-1H119c-0.6,0-1,0.4-1,1C118,39.2,118.4,39.7,119,39.7z"></path></g><g><path d="M119,44.4h8.6c0.6,0,1-0.4,1-1c0-0.6-0.4-1-1-1H119c-0.6,0-1,0.4-1,1C118,43.9,118.4,44.4,119,44.4z"></path></g><g><path d="M107,39.7h8.6c0.6,0,1-0.4,1-1c0-0.6-0.4-1-1-1H107c-0.6,0-1,0.4-1,1C106,39.2,106.5,39.7,107,39.7z"></path></g><g><path d="M107,44.4h8.6c0.6,0,1-0.4,1-1c0-0.6-0.4-1-1-1H107c-0.6,0-1,0.4-1,1C106,43.9,106.5,44.4,107,44.4z"></path></g><g><path d="M99.7,44.4h3.9c0.6,0,1-0.4,1-1c0-0.6-0.4-1-1-1h-3.9c-0.6,0-1,0.4-1,1C98.7,43.9,99.2,44.4,99.7,44.4z"></path></g><g><path d="M121.4,35h4.6c0.6,0,1-0.4,1-1s-0.4-1-1-1h-4.6c-0.6,0-1,0.4-1,1S120.9,35,121.4,35z"></path></g><g><path d="M129.9,49.8h4.6c0.6,0,1-0.4,1-1s-0.4-1-1-1h-4.6c-0.6,0-1,0.4-1,1S129.3,49.8,129.9,49.8z"></path></g><g><path d="M119,54.5h8.6c0.6,0,1-0.4,1-1c0-0.6-0.4-1-1-1H119c-0.6,0-1,0.4-1,1C118,54,118.4,54.5,119,54.5z"></path></g><g><path d="M119,59.2h8.6c0.6,0,1-0.4,1-1c0-0.6-0.4-1-1-1H119c-0.6,0-1,0.4-1,1C118,58.7,118.4,59.2,119,59.2z"></path></g><g><path d="M107,54.5h8.6c0.6,0,1-0.4,1-1c0-0.6-0.4-1-1-1H107c-0.6,0-1,0.4-1,1C106,54,106.5,54.5,107,54.5z"></path></g><g><path d="M107,59.2h8.6c0.6,0,1-0.4,1-1c0-0.6-0.4-1-1-1H107c-0.6,0-1,0.4-1,1C106,58.7,106.5,59.2,107,59.2z"></path></g><g><path d="M99.7,59.2h3.9c0.6,0,1-0.4,1-1c0-0.6-0.4-1-1-1h-3.9c-0.6,0-1,0.4-1,1C98.7,58.7,99.2,59.2,99.7,59.2z"></path></g><g><path d="M121.4,47.8c-0.6,0-1,0.4-1,1s0.4,1,1,1h4.6c0.6,0,1-0.4,1-1s-0.4-1-1-1H121.4z"></path></g><g><path d="M109.9,89.6c-0.4,0.3-0.6,0.7-0.6,1.2v2.7c0,0.9,0.7,1.6,1.6,1.6h5.3c0.9,0,1.6-0.7,1.6-1.6v-2.7c0-0.5-0.2-0.9-0.6-1.2     c0.2-1.9,0.8-3.7,1.9-5c1-1.3,1.5-2.8,1.5-4.4c0-4-3.4-7.3-7.5-7c-3.6,0.2-6.5,3.2-6.6,6.8c-0.1,1.7,0.5,3.3,1.5,4.6     C109.1,86,109.8,87.8,109.9,89.6z M115.7,93.1h-4.4v-1.8h4.4V93.1z M113.2,75.2c2.9-0.2,5.4,2.1,5.4,5c0,1.1-0.4,2.2-1.1,3.1     c-1.3,1.7-2.1,3.7-2.3,6h-3.2c-0.2-2.2-1-4.3-2.4-6c-0.7-0.9-1.1-2.1-1.1-3.3C108.5,77.5,110.6,75.3,113.2,75.2z"></path></g></g></g></svg></g></g></svg>